<mxfile host="app.diagrams.net" modified="2024-05-27T11:50:16.032Z" agent="Mozilla/5.0 (Windows NT 10.0; Win64; x64) AppleWebKit/537.36 (KHTML, like Gecko) Chrome/125.0.0.0 Safari/537.36" etag="R7cYdEkQIg91Lmj4zYVZ" version="24.4.8" type="github">
  <diagram name="Страница — 1" id="8t6PvGh4A0OR3wwPPd6I">
    <mxGraphModel dx="1981" dy="532" grid="1" gridSize="10" guides="1" tooltips="1" connect="1" arrows="1" fold="1" page="1" pageScale="1" pageWidth="827" pageHeight="1169" math="0" shadow="0">
      <root>
        <mxCell id="0" />
        <mxCell id="1" parent="0" />
        <mxCell id="zbAlMrDfbpdhVFIHSiF9-1" value="User(passenger)" style="swimlane;childLayout=stackLayout;horizontal=1;startSize=50;horizontalStack=0;rounded=1;fontSize=14;fontStyle=0;strokeWidth=2;resizeParent=0;resizeLast=1;shadow=0;dashed=0;align=center;arcSize=4;whiteSpace=wrap;html=1;" vertex="1" parent="1">
          <mxGeometry x="-570" y="240" width="180" height="150" as="geometry" />
        </mxCell>
        <mxCell id="zbAlMrDfbpdhVFIHSiF9-2" value="&lt;font style=&quot;font-size: 14px;&quot;&gt;+T&lt;/font&gt;&lt;font style=&quot;font-size: 14px;&quot;&gt;rip search&lt;/font&gt;&lt;div&gt;&lt;font size=&quot;3&quot;&gt;+Booking tickets&lt;/font&gt;&lt;/div&gt;&lt;div&gt;&lt;font size=&quot;3&quot;&gt;+Evaluation of services&lt;/font&gt;&lt;/div&gt;&lt;div&gt;&lt;font size=&quot;3&quot;&gt;+View trip history&lt;/font&gt;&lt;/div&gt;" style="align=left;strokeColor=none;fillColor=none;spacingLeft=4;fontSize=12;verticalAlign=top;resizable=0;rotatable=0;part=1;html=1;" vertex="1" parent="zbAlMrDfbpdhVFIHSiF9-1">
          <mxGeometry y="50" width="180" height="100" as="geometry" />
        </mxCell>
        <mxCell id="zbAlMrDfbpdhVFIHSiF9-3" value="Driver" style="swimlane;childLayout=stackLayout;horizontal=1;startSize=50;horizontalStack=0;rounded=1;fontSize=14;fontStyle=0;strokeWidth=2;resizeParent=0;resizeLast=1;shadow=0;dashed=0;align=center;arcSize=4;whiteSpace=wrap;html=1;" vertex="1" parent="1">
          <mxGeometry x="-570" y="435" width="180" height="150" as="geometry" />
        </mxCell>
        <mxCell id="zbAlMrDfbpdhVFIHSiF9-4" value="&lt;font style=&quot;font-size: 14px;&quot;&gt;+Entering information about&lt;/font&gt;&lt;div&gt;&lt;font style=&quot;font-size: 14px;&quot;&gt;&amp;nbsp;trip&lt;/font&gt;&lt;/div&gt;&lt;div&gt;&lt;font style=&quot;font-size: 14px;&quot;&gt;+View scheduled trip&lt;/font&gt;&lt;/div&gt;&lt;div&gt;&lt;font style=&quot;font-size: 14px;&quot;&gt;+Interaction with passenger&amp;nbsp;&lt;/font&gt;&lt;/div&gt;" style="align=left;strokeColor=none;fillColor=none;spacingLeft=4;fontSize=12;verticalAlign=top;resizable=0;rotatable=0;part=1;html=1;" vertex="1" parent="zbAlMrDfbpdhVFIHSiF9-3">
          <mxGeometry y="50" width="180" height="100" as="geometry" />
        </mxCell>
        <mxCell id="zbAlMrDfbpdhVFIHSiF9-5" value="Admin" style="swimlane;childLayout=stackLayout;horizontal=1;startSize=50;horizontalStack=0;rounded=1;fontSize=14;fontStyle=0;strokeWidth=2;resizeParent=0;resizeLast=1;shadow=0;dashed=0;align=center;arcSize=4;whiteSpace=wrap;html=1;" vertex="1" parent="1">
          <mxGeometry x="-570" y="670" width="180" height="150" as="geometry" />
        </mxCell>
        <mxCell id="zbAlMrDfbpdhVFIHSiF9-6" value="&lt;span style=&quot;font-size: 14px;&quot;&gt;+User management&lt;/span&gt;&lt;div&gt;&lt;span style=&quot;font-size: 14px;&quot;&gt;+Trip status monitoring&lt;/span&gt;&lt;/div&gt;&lt;div&gt;&lt;span style=&quot;font-size: 14px;&quot;&gt;+Issuance of report&lt;/span&gt;&lt;/div&gt;" style="align=left;strokeColor=none;fillColor=none;spacingLeft=4;fontSize=12;verticalAlign=top;resizable=0;rotatable=0;part=1;html=1;" vertex="1" parent="zbAlMrDfbpdhVFIHSiF9-5">
          <mxGeometry y="50" width="180" height="100" as="geometry" />
        </mxCell>
      </root>
    </mxGraphModel>
  </diagram>
</mxfile>
